<svg width="480" height="361" viewBox="0 0 480 361" fill="none" xmlns="http://www.w3.org/2000/svg">
<mask id="mask0_1_402" style="mask-type:alpha" maskUnits="userSpaceOnUse" x="0" y="0" width="481" height="361">
<rect x="479.5" y="0.5" width="360" height="479" transform="rotate(90 479.5 0.5)" fill="url(#paint0_linear_1_402)" stroke="#6246E5"/>
</mask>
<g mask="url(#mask0_1_402)">
<path d="M255.535 336.202C255.535 405.635 199.328 461.92 129.996 461.92C60.663 461.92 4.45577 405.635 4.45577 336.202C4.4558 266.769 60.663 210.484 129.996 210.484C199.328 210.485 255.535 266.77 255.535 336.202Z" stroke="#E5E5E5"/>
<path d="M283.728 326.237C283.728 403.925 220.839 466.901 143.263 466.901C65.6872 466.901 2.79753 403.925 2.79733 326.237C2.79733 248.55 65.6871 185.572 143.263 185.572C220.839 185.572 283.728 248.55 283.728 326.237Z" stroke="#E5E5E5"/>
<path d="M307.775 317.935C307.775 402.96 238.946 471.885 154.042 471.885C69.1392 471.885 0.310256 402.96 0.310021 317.935C0.310025 232.909 69.139 163.983 154.042 163.983C238.946 163.983 307.775 232.909 307.775 317.935Z" stroke="#E5E5E5"/>
<path d="M335.139 309.63C335.139 401.076 261.112 475.206 169.797 475.206C78.4827 475.206 4.45656 401.075 4.45651 309.63C4.45651 218.184 78.4827 144.054 169.797 144.054C261.112 144.054 335.139 218.184 335.139 309.63Z" stroke="#E5E5E5"/>
<path d="M361.674 301.741C361.674 399.378 282.635 478.527 185.137 478.527C87.6404 478.527 8.60225 399.378 8.60226 301.741C8.60229 204.104 87.6404 124.955 185.137 124.955C282.635 124.955 361.674 204.104 361.674 301.741Z" stroke="#E5E5E5"/>
<path d="M396.5 288.456C396.5 395.724 309.665 482.68 202.551 482.68C95.4368 482.68 8.60199 395.723 8.60177 288.456C8.60177 181.188 95.4367 94.2316 202.551 94.2314C309.665 94.2314 396.5 181.188 396.5 288.456Z" stroke="#E5E5E5"/>
</g>
<defs>
<linearGradient id="paint0_linear_1_402" x1="736.036" y1="13.4669" x2="487.705" y2="484.066" gradientUnits="userSpaceOnUse">
<stop stop-color="#747DEF"/>
<stop offset="1" stop-color="#5E3BE1"/>
</linearGradient>
</defs>
</svg>
