<svg width="113" height="114" viewBox="0 0 113 114" fill="none" xmlns="http://www.w3.org/2000/svg">
<path d="M106.177 16.68C96.9167 11.15 81.6467 24.47 77.7667 28.1C78.5493 25.7979 79.9053 23.733 81.7067 22.1C81.7489 22.0669 81.7827 22.0243 81.8053 21.9756C81.8279 21.9269 81.8386 21.8736 81.8367 21.82C81.8368 21.7684 81.8241 21.7176 81.7996 21.6722C81.7752 21.6268 81.7398 21.5883 81.6967 21.56C80.8389 20.9802 79.8318 20.6607 78.7967 20.64C79.3294 19.9837 80.0138 19.4669 80.7908 19.1342C81.5678 18.8014 82.4141 18.6627 83.2567 18.73C83.3188 18.7392 83.3823 18.7299 83.4392 18.7032C83.4962 18.6765 83.544 18.6337 83.5767 18.58C83.6083 18.5253 83.6249 18.4632 83.6249 18.4C83.6249 18.3368 83.6083 18.2747 83.5767 18.22C83.1679 17.6016 82.6031 17.1021 81.9394 16.7719C81.2756 16.4418 80.5365 16.2928 79.7967 16.34C81.1067 15.34 84.0767 14.98 85.2767 14.94C85.3407 14.9394 85.4031 14.9201 85.4564 14.8846C85.5097 14.8491 85.5515 14.7988 85.5767 14.74C85.6012 14.6827 85.6096 14.6197 85.6007 14.558C85.5919 14.4963 85.5663 14.4381 85.5267 14.39C84.3686 13.0431 82.727 12.2061 80.9567 12.06C82.6167 10.06 87.5367 9.45998 87.5867 9.44998C87.6569 9.44459 87.7234 9.41621 87.7758 9.3692C87.8282 9.3222 87.8637 9.25921 87.8767 9.19C87.8932 9.15127 87.9018 9.10965 87.9022 9.06757C87.9025 9.02548 87.8946 8.98375 87.8788 8.94473C87.863 8.90572 87.8397 8.87019 87.8102 8.84021C87.7806 8.81023 87.7454 8.78636 87.7067 8.76999C86.1459 7.77614 84.3765 7.15667 82.5367 6.95999C84.5367 4.47999 90.8967 2.95999 90.9667 2.95999C91.0345 2.94411 91.0958 2.90776 91.1423 2.8559C91.1888 2.80403 91.2183 2.73913 91.2267 2.66998C91.2345 2.60176 91.2215 2.53277 91.1894 2.47208C91.1573 2.41139 91.1075 2.36185 91.0467 2.32999C86.7867 0.109987 81.5867 2.26999 81.3467 2.32999C75.3467 5.32999 75.0767 15.28 75.7067 22.17C73.3467 13.8 68.2167 0.69 59.1467 0C58.8467 0 51.7767 -2.3365e-05 47.8967 4.56998C47.8575 4.62559 47.8365 4.69196 47.8365 4.75998C47.8365 4.828 47.8575 4.89436 47.8967 4.94998C47.9316 5.00977 47.9835 5.05784 48.0458 5.0881C48.1082 5.11837 48.178 5.12947 48.2467 5.12C48.3367 5.12 56.7867 3.74998 60.2467 5.84998C58.136 6.9444 56.3211 8.53285 54.9567 10.48C54.9158 10.5387 54.8939 10.6085 54.8939 10.68C54.8939 10.7515 54.9158 10.8213 54.9567 10.88C54.9974 10.9372 55.0548 10.9804 55.121 11.0037C55.1873 11.027 55.2591 11.0292 55.3267 11.01C55.3967 11.01 61.6667 9.25999 64.5467 10.96C63.5327 11.4515 62.6272 12.1409 61.8836 12.9875C61.14 13.8342 60.5732 14.821 60.2167 15.89C60.196 15.9508 60.1935 16.0162 60.2095 16.0784C60.2255 16.1406 60.2593 16.1967 60.3067 16.24C60.3515 16.2851 60.4087 16.3158 60.471 16.3283C60.5334 16.3408 60.598 16.3344 60.6567 16.31C62.1467 15.76 66.0267 14.67 68.0267 15.41C67.1059 15.6779 66.2756 16.192 65.6254 16.8968C64.9752 17.6017 64.5296 18.4706 64.3367 19.41C64.327 19.4726 64.3349 19.5366 64.3597 19.5949C64.3844 19.6532 64.4249 19.7035 64.4767 19.74C64.5314 19.7716 64.5935 19.7882 64.6567 19.7882C64.7199 19.7882 64.782 19.7716 64.8367 19.74C65.8258 19.2307 66.9277 18.9801 68.0398 19.0116C69.1519 19.0431 70.2379 19.3556 71.1967 19.92C69.9481 20.4256 68.8791 21.2927 68.1267 22.41C68.1022 22.4562 68.0893 22.5077 68.0893 22.56C68.0893 22.6123 68.1022 22.6638 68.1267 22.71C68.1452 22.7593 68.1746 22.8038 68.2127 22.8401C68.2508 22.8765 68.2966 22.9038 68.3467 22.92C71.2901 23.9759 73.9088 25.7781 75.9467 28.15C71.0067 26.24 54.2466 20.49 48.3666 28.15C48.2266 28.36 44.9166 33.35 46.3666 38.24C46.3866 38.3056 46.426 38.3636 46.4795 38.4064C46.533 38.4493 46.5983 38.4749 46.6667 38.48H46.7167C46.7766 38.4736 46.8339 38.4518 46.8829 38.4168C46.932 38.3817 46.9712 38.3346 46.9967 38.28C46.9967 38.21 49.9167 31.77 52.9367 30.28C52.7565 32.2525 53.0443 34.2396 53.7767 36.08C53.7999 36.1458 53.8434 36.2025 53.9009 36.242C53.9584 36.2816 54.0269 36.3019 54.0967 36.3C54.1685 36.2989 54.2382 36.2751 54.2957 36.232C54.3532 36.1889 54.3955 36.1287 54.4167 36.06C54.4167 36.01 56.0667 30.93 58.5267 29.62C58.4171 30.5555 58.4932 31.5034 58.7506 32.4094C59.008 33.3155 59.4417 34.1618 60.0267 34.9C60.0668 34.949 60.1202 34.9855 60.1805 35.005C60.2408 35.0245 60.3054 35.0262 60.3667 35.01C60.4283 34.9975 60.4849 34.9671 60.5293 34.9226C60.5738 34.8782 60.6042 34.8216 60.6167 34.76C60.9067 33.5 61.8767 30.4 63.2467 29.26C63.0377 30.0276 63.0368 30.837 63.2442 31.605C63.4516 32.373 63.8597 33.0719 64.4267 33.63C64.4734 33.672 64.5305 33.7006 64.5921 33.713C64.6537 33.7253 64.7174 33.7208 64.7767 33.7C64.8364 33.6765 64.8885 33.637 64.9273 33.5858C64.9661 33.5347 64.9901 33.4739 64.9967 33.41C65.102 32.5062 65.4256 31.6416 65.9395 30.8907C66.4535 30.1399 67.1423 29.5253 67.9467 29.1C67.7475 30.192 67.8727 31.3184 68.3067 32.34C68.3267 32.388 68.3581 32.4303 68.3982 32.4634C68.4382 32.4965 68.4858 32.5194 68.5367 32.53C68.5871 32.5411 68.6395 32.5406 68.6898 32.5285C68.74 32.5164 68.7868 32.4929 68.8267 32.46C69.6168 31.8403 70.4799 31.3197 71.3967 30.91C70.9962 31.2794 70.6854 31.7354 70.4878 32.2432C70.2903 32.7509 70.2112 33.2971 70.2567 33.84C70.3381 34.7932 70.7946 35.6752 71.5259 36.2921C72.2571 36.9089 73.2034 37.2103 74.1567 37.13C74.9404 37.0612 75.679 36.7341 76.2567 36.2C77.1067 38.42 80.3567 49.06 74.8567 70.2C67.4367 72.43 66.2567 74.77 65.2267 76.84C64.8926 77.5921 64.4477 78.2899 63.9067 78.91C63.3839 79.649 63.0747 80.5177 63.0129 81.4209C62.9512 82.324 63.1393 83.2267 63.5567 84.03C64.9267 86.89 69.4367 90.03 83.0967 88.88C92.4967 88.08 98.2867 85.88 100.307 82.34C100.717 81.6619 100.963 80.8975 101.025 80.1076C101.088 79.3177 100.965 78.5241 100.667 77.79C98.6667 73.01 93.5467 69.14 88.6667 68.67C87.8867 60.96 85.4967 42.89 79.8367 35.67C80.076 35.695 80.3173 35.695 80.5567 35.67C81.5108 35.5861 82.3927 35.1274 83.0093 34.3946C83.626 33.6617 83.9271 32.7144 83.8467 31.76C83.7845 31.0427 83.5081 30.3607 83.0534 29.8026C82.5986 29.2444 81.9866 28.8358 81.2967 28.63C83.223 28.4626 85.1637 28.6422 87.0267 29.16C87.0718 29.1821 87.1214 29.1935 87.1717 29.1935C87.2219 29.1935 87.2715 29.1821 87.3167 29.16C87.361 29.1322 87.3979 29.094 87.424 29.0487C87.4502 29.0033 87.4648 28.9523 87.4667 28.9C87.4918 27.6563 87.1435 26.4337 86.4667 25.39C87.4828 25.4859 88.4591 25.8332 89.3076 26.4005C90.156 26.9679 90.8499 27.7375 91.3267 28.64C91.3543 28.6962 91.397 28.7437 91.4499 28.7773C91.5028 28.8108 91.564 28.829 91.6267 28.83C91.6893 28.829 91.7505 28.8108 91.8034 28.7773C91.8564 28.7437 91.899 28.6962 91.9267 28.64C92.2896 27.8305 92.4255 26.9376 92.3198 26.0568C92.2141 25.176 91.8708 24.3406 91.3267 23.64C93.2067 24.19 95.5267 27.04 96.3267 28.24C96.361 28.2896 96.4076 28.3295 96.462 28.3557C96.5163 28.382 96.5764 28.3938 96.6367 28.39C96.7001 28.3806 96.7595 28.3528 96.8074 28.3102C96.8554 28.2676 96.8899 28.2119 96.9067 28.15C97.203 27.1583 97.3007 26.1178 97.1943 25.0882C97.0879 24.0587 96.7795 23.0602 96.2867 22.15C99.3567 22.45 103.137 27.06 103.177 27.15C103.222 27.2045 103.282 27.2442 103.35 27.2638C103.417 27.2835 103.49 27.2821 103.557 27.26C103.625 27.2377 103.684 27.1931 103.724 27.1332C103.764 27.0733 103.782 27.0017 103.777 26.93C103.785 24.7374 103.271 22.5743 102.277 20.62C105.987 20.9 111.617 26.4 111.677 26.46C111.726 26.5085 111.789 26.5403 111.857 26.5511C111.925 26.5618 111.995 26.551 112.057 26.52C112.119 26.4914 112.17 26.4443 112.204 26.3852C112.238 26.3261 112.253 26.2579 112.247 26.19C111.817 20.62 106.427 16.85 106.177 16.68ZM88.2867 72.29C88.1558 73.3407 87.725 74.3314 87.0458 75.1437C86.3665 75.9559 85.4676 76.5553 84.4567 76.87C81.6167 77.87 77.6067 77.21 75.7067 75.43C75.3197 75.1157 75.0304 74.6976 74.8727 74.2246C74.7151 73.7517 74.6956 73.2436 74.8167 72.76L75.0567 71.88C77.5163 72.7941 80.1359 73.1989 82.7567 73.07C84.798 72.9877 86.7288 72.1208 88.1467 70.65C88.2367 71.56 88.2767 72.14 88.2867 72.29ZM88.0567 69.69C84.6267 74.3 76.7967 71.79 75.2267 71.22C75.6867 69.52 76.09 67.8866 76.4367 66.32C78.2039 67.411 80.279 67.8956 82.3467 67.7C84.2208 67.5011 86.0292 66.8972 87.6467 65.93C87.8167 67.39 87.9567 68.67 88.0567 69.69ZM87.5567 65.2C81.5567 68.8 77.4367 66.2 76.5567 65.61C76.8967 64.04 77.1767 62.54 77.4267 61.11C79.039 61.6306 80.7375 61.831 82.4267 61.7C83.9713 61.5775 85.4701 61.1166 86.8167 60.35C87.1467 62.08 87.3667 63.77 87.5567 65.2ZM77.5567 60.43C77.8067 58.93 78.0067 57.49 78.1567 56.14C79.4798 56.624 80.8931 56.8117 82.2967 56.69C83.6081 56.5788 84.8803 56.1866 86.0267 55.54C86.2967 56.93 86.5267 58.3 86.7367 59.63C85.3495 60.3932 83.8183 60.8586 82.2411 60.9963C80.6638 61.1341 79.0751 60.9412 77.5767 60.43H77.5567ZM78.2267 55.43C78.3567 54.15 78.4567 52.93 78.5167 51.78C79.6464 52.1552 80.8403 52.298 82.0267 52.2C83.1248 52.1022 84.1873 51.7605 85.1367 51.2C85.4067 52.39 85.6667 53.6 85.8967 54.79C84.7499 55.4597 83.4683 55.8656 82.145 55.978C80.8217 56.0904 79.49 55.9067 78.2467 55.44L78.2267 55.43ZM78.5567 51.07C78.5567 50 78.6167 48.99 78.6067 48.07C79.3453 48.2044 80.0984 48.2414 80.8467 48.18C82.0012 48.1021 83.1104 47.7 84.0467 47.02C84.3767 48.18 84.6867 49.37 84.9667 50.57C84.0023 51.1134 82.9313 51.4405 81.8278 51.5286C80.7244 51.6167 79.615 51.4636 78.5767 51.08L78.5567 51.07ZM78.6067 47.34C78.6067 46.15 78.5267 45.06 78.4367 44.06C78.9743 44.1817 79.5276 44.2188 80.0767 44.17C81.0676 44.0806 82.0185 43.7361 82.8367 43.17C83.1867 44.17 83.5267 45.17 83.8367 46.26C83.0926 46.7956 82.2446 47.1694 81.3472 47.3571C80.4498 47.5449 79.5231 47.5424 78.6267 47.35L78.6067 47.34ZM78.3767 43.34C78.29 42.5 78.19 41.73 78.0767 41.03C78.3926 41.0609 78.7108 41.0609 79.0267 41.03C79.9499 40.9656 80.8304 40.6162 81.5467 40.03C81.9167 40.82 82.2567 41.66 82.5967 42.53C82.006 42.9788 81.3201 43.2861 80.592 43.4283C79.8639 43.5704 79.1128 43.5436 78.3967 43.35L78.3767 43.34ZM77.9667 40.34C77.8167 39.54 77.6667 38.85 77.5167 38.26C77.7229 38.28 77.9305 38.28 78.1367 38.26C78.8914 38.2083 79.6019 37.885 80.1367 37.35C80.5541 37.9946 80.9347 38.6624 81.2767 39.35C80.8372 39.7508 80.3137 40.0486 79.7446 40.2216C79.1755 40.3946 78.5749 40.4384 77.9867 40.35L77.9667 40.34ZM77.3167 37.54C77.1267 36.88 76.9567 36.39 76.8267 36.05H77.2567C77.7871 36.0013 78.2998 35.8338 78.7567 35.56C79.1133 35.9435 79.4472 36.3475 79.7567 36.77C79.458 37.102 79.0768 37.3491 78.6518 37.4861C78.2267 37.6231 77.773 37.6451 77.3367 37.55L77.3167 37.54ZM78.6267 34.85C78.2984 35.075 77.9286 35.2324 77.5389 35.3131C77.1492 35.3938 76.7473 35.3961 76.3567 35.32C75.7377 35.1929 75.1764 34.8691 74.7565 34.397C74.3366 33.9248 74.0806 33.3295 74.0267 32.7C73.9923 32.3221 74.0329 31.9412 74.1462 31.5791C74.2594 31.217 74.4431 30.8809 74.6867 30.59C74.9308 30.287 75.234 30.0367 75.5778 29.8545C75.9216 29.6723 76.2989 29.5619 76.6867 29.53H77.1167C77.4876 29.5487 77.8513 29.6404 78.1867 29.8C78.6508 30.0188 79.0494 30.3556 79.3424 30.7768C79.6355 31.198 79.8128 31.6887 79.8567 32.2C79.9075 32.7107 79.8223 33.2257 79.6098 33.6929C79.3973 34.1601 79.065 34.5627 78.6467 34.86L78.6267 34.85ZM81.6267 3.01999C82.9095 2.52295 84.2562 2.20986 85.6267 2.09C87.0588 1.94115 88.5062 2.1084 89.8667 2.57999C87.7767 3.15999 82.8667 4.74 81.6267 7.16C81.5947 7.21095 81.5778 7.26985 81.5778 7.32999C81.5778 7.39012 81.5947 7.44905 81.6267 7.5C81.6579 7.55031 81.7025 7.59095 81.7554 7.61743C81.8084 7.64391 81.8677 7.6552 81.9267 7.64999C83.5259 7.68824 85.0915 8.1174 86.4867 8.89999C84.7067 9.22999 81.0567 10.13 79.9967 12.19C79.9677 12.2402 79.9525 12.2971 79.9525 12.355C79.9525 12.4129 79.9677 12.4698 79.9967 12.52C80.0275 12.5714 80.0716 12.6134 80.1245 12.6416C80.1773 12.6698 80.2369 12.6831 80.2967 12.68C81.8353 12.6871 83.3182 13.2561 84.4667 14.28C82.9467 14.41 79.5167 14.9 78.6367 16.57C78.603 16.624 78.5851 16.6864 78.5851 16.75C78.5851 16.8136 78.603 16.876 78.6367 16.93C78.6724 16.9847 78.7245 17.0268 78.7856 17.0501C78.8467 17.0735 78.9135 17.0769 78.9767 17.06C79.6006 16.9346 80.2455 16.96 80.8577 17.1339C81.4699 17.3078 82.0318 17.6253 82.4967 18.06C81.5343 18.077 80.5925 18.3417 79.7622 18.8286C78.932 19.3156 78.2412 20.0083 77.7567 20.84C77.7249 20.8929 77.7082 20.9533 77.7082 21.015C77.7082 21.0766 77.7249 21.1371 77.7567 21.19C77.7911 21.2419 77.8392 21.2834 77.8956 21.3098C77.9521 21.3363 78.0147 21.3467 78.0767 21.34C79.0217 21.2747 79.9671 21.461 80.8167 21.88C79.1181 23.5227 77.8271 25.5397 77.0467 27.77C76.3367 22.97 74.1167 6.82 81.7067 3.03L81.6267 3.01999ZM68.8567 22.52C69.6654 21.56 70.7247 20.8434 71.9167 20.45C71.9767 20.4328 72.0308 20.3995 72.0732 20.3537C72.1155 20.3078 72.1444 20.2512 72.1567 20.19C72.1664 20.1284 72.1594 20.0653 72.1366 20.0073C72.1137 19.9493 72.0758 19.8984 72.0267 19.86C71.0369 19.118 69.8714 18.6458 68.6443 18.4898C67.4172 18.3338 66.1706 18.4993 65.0267 18.97C65.8367 16.47 68.6867 15.97 68.8167 15.91C68.8806 15.9018 68.9406 15.8745 68.9888 15.8317C69.037 15.7889 69.0711 15.7325 69.0867 15.67C69.1014 15.6071 69.099 15.5415 69.0796 15.4799C69.0602 15.4183 69.0247 15.3631 68.9767 15.32C67.1167 13.76 62.6867 14.97 60.9767 15.52C61.8138 13.665 63.3265 12.1989 65.2067 11.42C65.2635 11.4007 65.3141 11.3664 65.3528 11.3206C65.3916 11.2747 65.4171 11.2192 65.4267 11.16C65.4369 11.1017 65.4321 11.0418 65.4129 10.9858C65.3937 10.9298 65.3606 10.8797 65.3167 10.84C63.0367 8.89 58.0767 9.72 55.9767 10.19C57.269 8.50248 58.9688 7.17083 60.9167 6.31998C60.973 6.29981 61.0229 6.26516 61.0616 6.21951C61.1002 6.17386 61.1261 6.11885 61.1367 6.06C61.1489 6.0017 61.1452 5.94117 61.1258 5.88483C61.1064 5.82849 61.0722 5.77843 61.0267 5.73999C58.3167 3.45999 51.5267 4.06997 49.0267 4.37997C52.8067 0.719974 59.0267 0.73999 59.0867 0.73999C70.0067 1.57999 75.1767 22.33 76.3567 27.86C74.3424 25.501 71.7812 23.6711 68.8967 22.53L68.8567 22.52ZM68.7067 31.77C68.4412 30.7876 68.4412 29.7524 68.7067 28.77C68.7253 28.7106 68.7267 28.6472 68.7107 28.587C68.6948 28.5268 68.6622 28.4724 68.6167 28.43C68.5732 28.3862 68.5182 28.3555 68.4581 28.3413C68.398 28.3272 68.3352 28.3302 68.2767 28.35C67.3074 28.6954 66.4433 29.2843 65.7673 30.0602C65.0913 30.836 64.6262 31.7726 64.4167 32.78C64.0465 32.1973 63.823 31.5336 63.7656 30.8456C63.7081 30.1577 63.8183 29.466 64.0867 28.83C64.1207 28.778 64.1388 28.7172 64.1388 28.655C64.1388 28.5928 64.1207 28.532 64.0867 28.48C64.0438 28.4319 63.9882 28.3969 63.9262 28.3792C63.8642 28.3615 63.7985 28.3618 63.7367 28.38C61.7967 28.95 60.5967 32.5 60.1667 34.03C59.3004 32.612 58.9938 30.9219 59.3067 29.29C59.3191 29.2325 59.3164 29.1729 59.2989 29.1168C59.2813 29.0607 59.2496 29.0102 59.2067 28.97C59.1654 28.926 59.1122 28.895 59.0536 28.8808C58.995 28.8666 58.9335 28.8698 58.8767 28.89C56.4967 29.58 54.8067 33.29 54.1267 35.06C53.5764 33.4188 53.4357 31.668 53.7167 29.96C53.7333 29.902 53.7336 29.8406 53.7178 29.7824C53.7019 29.7242 53.6704 29.6715 53.6267 29.63C53.5841 29.588 53.5309 29.5584 53.4728 29.5443C53.4146 29.5302 53.3538 29.5322 53.2967 29.55C50.4867 30.39 47.8267 35.25 46.8167 37.28C46.0867 32.99 48.9066 28.73 48.9266 28.7C50.6266 26.5 53.3567 25.51 56.4767 25.24C63.5267 24.64 72.4767 27.76 75.7867 29.01C73.2401 29.3515 70.8125 30.2979 68.7067 31.77ZM74.5067 29.92L74.3367 30.08H74.0367L74.5067 29.92ZM70.8767 33.92C70.8438 33.5357 70.8871 33.1488 71.0041 32.7813C71.1211 32.4138 71.3095 32.073 71.5585 31.7785C71.8075 31.484 72.1122 31.2416 72.4551 31.0651C72.798 30.8886 73.1723 30.7815 73.5567 30.75H73.8567V30.8C73.8567 30.85 73.8067 30.91 73.7767 30.96C73.7083 31.0962 73.6482 31.2365 73.5967 31.38L73.5367 31.59C73.4962 31.7309 73.4661 31.8746 73.4467 32.02V32.21C73.4267 32.4262 73.4267 32.6438 73.4467 32.86C73.462 33.0421 73.4921 33.2227 73.5367 33.4C73.5367 33.46 73.5367 33.52 73.5867 33.58L73.7067 33.92L73.7967 34.11C73.844 34.2098 73.8974 34.3067 73.9567 34.4L74.0767 34.59C74.1344 34.6775 74.1978 34.761 74.2667 34.84L74.4167 35.01C74.4883 35.0916 74.5651 35.1684 74.6467 35.24L74.8167 35.38C74.9024 35.4522 74.9926 35.519 75.0867 35.58L75.2567 35.69C75.4008 35.7719 75.5513 35.8421 75.7067 35.9C75.2445 36.2925 74.671 36.5303 74.0667 36.58C73.6748 36.6169 73.2795 36.5748 72.9042 36.4561C72.529 36.3375 72.1814 36.1446 71.882 35.8891C71.5826 35.6336 71.3376 35.3205 71.1615 34.9685C70.9854 34.6165 70.8817 34.2328 70.8567 33.84L70.8767 33.92ZM100.027 78.21C100.282 78.8583 100.383 79.5571 100.323 80.2512C100.262 80.9453 100.041 81.6159 99.6767 82.21C98.3667 84.49 94.4067 87.42 83.0067 88.4C69.0067 89.59 65.1767 86.11 64.1267 83.92C63.7748 83.2377 63.6115 82.4738 63.6537 81.7073C63.6959 80.9408 63.942 80.1995 64.3667 79.56C64.9543 78.8919 65.4395 78.1404 65.8067 77.33C66.8067 75.33 67.8567 73.27 74.6167 71.16C74.4867 71.67 74.3467 72.16 74.2067 72.7C74.0417 73.3014 74.056 73.9379 74.2478 74.5313C74.4397 75.1247 74.8008 75.649 75.2867 76.04C76.2863 76.8369 77.4331 77.429 78.6617 77.7824C79.8902 78.1359 81.1764 78.2438 82.4467 78.1C83.2234 78.0338 83.9892 77.8727 84.7267 77.62C85.8595 77.2635 86.8656 76.5883 87.6246 75.6749C88.3837 74.7616 88.8635 73.6489 89.0067 72.47V72.4C89.0067 72.19 88.9167 71.15 88.7567 69.54C91.194 69.9352 93.4961 70.9261 95.4586 72.4246C97.4211 73.923 98.9833 75.8828 100.007 78.13L100.027 78.21ZM83.1667 32.01C83.1996 32.3935 83.1566 32.7797 83.0403 33.1465C82.9239 33.5134 82.7364 33.8538 82.4884 34.1481C82.2405 34.4425 81.9369 34.6852 81.5952 34.8622C81.2534 35.0393 80.8802 35.1473 80.4967 35.18C80.1612 35.2125 79.8227 35.1854 79.4967 35.1C79.5567 35.05 79.5967 34.99 79.6567 34.93L79.7367 34.84C79.8267 34.73 79.9167 34.61 79.9967 34.49C80.0667 34.38 80.1267 34.26 80.1867 34.15L80.2467 34.02C80.2467 33.93 80.3167 33.84 80.3467 33.74C80.3767 33.64 80.3467 33.64 80.3967 33.59C80.4259 33.4982 80.4493 33.4047 80.4667 33.31V33.16V32.86C80.4713 32.8134 80.4713 32.7666 80.4667 32.72C80.4767 32.5702 80.4767 32.4198 80.4667 32.27C80.4667 32.12 80.4667 31.98 80.3967 31.83C80.3267 31.68 80.3967 31.74 80.3967 31.69C80.3967 31.64 80.3467 31.5 80.3167 31.41L80.2567 31.25C80.2242 31.1649 80.1875 31.0814 80.1467 31C80.124 30.948 80.0972 30.8978 80.0667 30.85C80.0667 30.77 79.9767 30.69 79.9267 30.61L79.8367 30.48C79.7753 30.3867 79.705 30.2996 79.6267 30.22L79.5667 30.14C79.4716 30.0383 79.3715 29.9415 79.2667 29.85L79.1467 29.76L78.9767 29.62C79.2749 29.4895 79.5924 29.4084 79.9167 29.38C80.6821 29.2952 81.4502 29.5153 82.0547 29.9925C82.6592 30.4697 83.0515 31.1657 83.1467 31.93L83.1667 32.01ZM101.707 20.01C101.648 20.0154 101.591 20.0357 101.542 20.0689C101.493 20.1021 101.453 20.1472 101.427 20.2C101.398 20.252 101.383 20.3105 101.383 20.37C101.383 20.4295 101.398 20.488 101.427 20.54C102.427 22.2075 102.997 24.0975 103.087 26.04C101.717 24.54 98.4567 21.34 95.7167 21.58C95.6587 21.5841 95.6028 21.604 95.5553 21.6375C95.5077 21.671 95.4701 21.7168 95.4467 21.77C95.4178 21.822 95.4026 21.8805 95.4026 21.94C95.4026 21.9995 95.4178 22.058 95.4467 22.11C96.4284 23.6905 96.785 25.5805 96.4467 27.41C95.4467 26.05 92.7267 22.82 90.4967 23.02C90.4317 23.0229 90.3691 23.0454 90.3173 23.0847C90.2655 23.1241 90.2269 23.1782 90.2067 23.24C90.182 23.2994 90.1765 23.365 90.1908 23.4277C90.2052 23.4904 90.2387 23.5472 90.2867 23.59C90.829 24.1446 91.2259 24.8245 91.4423 25.5695C91.6586 26.3144 91.6876 27.1012 91.5267 27.86C90.9056 26.9115 90.052 26.1378 89.0472 25.6127C88.0425 25.0875 86.92 24.8284 85.7867 24.86C85.7235 24.864 85.6625 24.8846 85.6098 24.9197C85.5572 24.9549 85.5147 25.0032 85.4867 25.06C85.4621 25.1173 85.4538 25.1803 85.4626 25.242C85.4714 25.3037 85.497 25.3619 85.5367 25.41C86.2216 26.3319 86.6371 27.4258 86.7367 28.57C84.8746 28.1058 82.9479 27.9571 81.0367 28.13C80.1106 28.2154 79.1917 28.3658 78.2867 28.58C82.2867 24.93 97.1367 12.15 105.777 17.32C105.827 17.32 110.517 20.63 111.447 25.39C109.707 23.69 104.937 19.68 101.707 19.96V20.01Z" fill="#E5E5E5"/>
<path d="M60.1767 40.68C50.9167 35.15 35.6467 48.47 31.7667 52.1C32.5493 49.7979 33.9053 47.733 35.7067 46.1C35.7489 46.0669 35.7827 46.0243 35.8053 45.9756C35.8279 45.9269 35.8386 45.8736 35.8367 45.82C35.8368 45.7684 35.8241 45.7176 35.7996 45.6722C35.7752 45.6268 35.7398 45.5883 35.6967 45.56C34.8389 44.9802 33.8318 44.6607 32.7967 44.64C33.3294 43.9837 34.0138 43.4669 34.7908 43.1342C35.5678 42.8014 36.4141 42.6627 37.2567 42.73C37.3188 42.7392 37.3823 42.7299 37.4392 42.7032C37.4962 42.6765 37.544 42.6337 37.5767 42.58C37.6083 42.5253 37.6249 42.4632 37.6249 42.4C37.6249 42.3368 37.6083 42.2747 37.5767 42.22C37.1679 41.6016 36.6031 41.1021 35.9394 40.7719C35.2756 40.4418 34.5365 40.2928 33.7967 40.34C35.1067 39.34 38.0767 38.98 39.2767 38.94C39.3407 38.9394 39.4031 38.9201 39.4564 38.8846C39.5097 38.8491 39.5515 38.7988 39.5767 38.74C39.6012 38.6827 39.6096 38.6197 39.6007 38.558C39.5919 38.4963 39.5663 38.4381 39.5267 38.39C38.3686 37.0431 36.727 36.2061 34.9567 36.06C36.6167 34.06 41.5367 33.46 41.5867 33.45C41.6569 33.4446 41.7234 33.4162 41.7758 33.3692C41.8282 33.3222 41.8637 33.2592 41.8767 33.19C41.8932 33.1513 41.9018 33.1097 41.9022 33.0676C41.9025 33.0255 41.8946 32.9837 41.8788 32.9447C41.863 32.9057 41.8397 32.8702 41.8102 32.8402C41.7806 32.8102 41.7454 32.7864 41.7067 32.77C40.1459 31.7761 38.3765 31.1567 36.5367 30.96C38.5367 28.48 44.8967 26.96 44.9667 26.96C45.0345 26.9441 45.0958 26.9078 45.1423 26.8559C45.1888 26.804 45.2183 26.7391 45.2267 26.67C45.2345 26.6018 45.2215 26.5328 45.1894 26.4721C45.1573 26.4114 45.1075 26.3619 45.0467 26.33C40.7867 24.11 35.5867 26.27 35.3467 26.33C29.3467 29.33 29.0767 39.28 29.7067 46.17C27.3467 37.8 22.2167 24.69 13.1467 24C12.8467 24 5.77668 24 1.89668 28.57C1.85751 28.6256 1.8365 28.692 1.8365 28.76C1.8365 28.828 1.85751 28.8944 1.89668 28.95C1.93165 29.0098 1.98354 29.0578 2.04585 29.0881C2.10815 29.1184 2.17804 29.1295 2.24665 29.12C2.33665 29.12 10.7867 27.75 14.2467 29.85C12.136 30.9444 10.3211 32.5329 8.95667 34.48C8.91581 34.5387 8.8939 34.6085 8.8939 34.68C8.8939 34.7515 8.91581 34.8213 8.95667 34.88C8.99737 34.9372 9.05479 34.9804 9.12104 35.0037C9.18729 35.027 9.25912 35.0292 9.32667 35.01C9.39667 35.01 15.6667 33.26 18.5467 34.96C17.5327 35.4515 16.6272 36.1409 15.8836 36.9875C15.14 37.8342 14.5732 38.821 14.2167 39.89C14.196 39.9508 14.1935 40.0162 14.2095 40.0784C14.2255 40.1406 14.2593 40.1967 14.3067 40.24C14.3515 40.2851 14.4087 40.3158 14.471 40.3283C14.5334 40.3408 14.598 40.3344 14.6567 40.31C16.1467 39.76 20.0267 38.67 22.0267 39.41C21.1059 39.6779 20.2756 40.192 19.6254 40.8968C18.9752 41.6017 18.5296 42.4706 18.3367 43.41C18.327 43.4726 18.3349 43.5366 18.3597 43.5949C18.3844 43.6532 18.4249 43.7035 18.4767 43.74C18.5314 43.7716 18.5935 43.7882 18.6567 43.7882C18.7199 43.7882 18.782 43.7716 18.8367 43.74C19.8258 43.2307 20.9277 42.9801 22.0398 43.0116C23.1519 43.0431 24.2379 43.3556 25.1967 43.92C23.9481 44.4256 22.8791 45.2927 22.1267 46.41C22.1022 46.4562 22.0893 46.5077 22.0893 46.56C22.0893 46.6123 22.1022 46.6638 22.1267 46.71C22.1452 46.7593 22.1746 46.8038 22.2127 46.8401C22.2508 46.8765 22.2966 46.9038 22.3467 46.92C25.2901 47.9759 27.9088 49.7781 29.9467 52.15C25.0067 50.24 8.24665 44.49 2.36665 52.15C2.22665 52.36 -1.08335 57.35 0.366647 62.24C0.386623 62.3056 0.425963 62.3636 0.479501 62.4064C0.533039 62.4493 0.598323 62.4749 0.666696 62.48H0.716683C0.776628 62.4736 0.833887 62.4518 0.882943 62.4168C0.931999 62.3817 0.971156 62.3346 0.996652 62.28C0.996652 62.21 3.91668 55.77 6.93668 54.28C6.75655 56.2525 7.04434 58.2396 7.77668 60.08C7.79991 60.1458 7.84339 60.2025 7.90089 60.242C7.95838 60.2816 8.02694 60.3019 8.09669 60.3C8.16855 60.2989 8.2382 60.2751 8.29569 60.232C8.35319 60.1889 8.39554 60.1287 8.41667 60.06C8.41667 60.01 10.0667 54.93 12.5267 53.62C12.4171 54.5555 12.4932 55.5034 12.7506 56.4094C13.008 57.3155 13.4417 58.1618 14.0267 58.9C14.0668 58.949 14.1202 58.9855 14.1805 59.005C14.2408 59.0245 14.3054 59.0262 14.3667 59.01C14.4283 58.9975 14.4849 58.9671 14.5293 58.9226C14.5738 58.8782 14.6042 58.8216 14.6167 58.76C14.9067 57.5 15.8767 54.4 17.2467 53.26C17.0377 54.0276 17.0368 54.837 17.2442 55.605C17.4516 56.373 17.8597 57.0719 18.4267 57.63C18.4734 57.672 18.5305 57.7006 18.5921 57.713C18.6537 57.7253 18.7174 57.7208 18.7767 57.7C18.8364 57.6765 18.8885 57.637 18.9273 57.5858C18.9661 57.5347 18.9901 57.4739 18.9967 57.41C19.102 56.5062 19.4256 55.6416 19.9395 54.8907C20.4535 54.1399 21.1423 53.5253 21.9467 53.1C21.7475 54.192 21.8727 55.3184 22.3067 56.34C22.3267 56.388 22.3581 56.4303 22.3982 56.4634C22.4382 56.4965 22.4858 56.5194 22.5367 56.53C22.5871 56.5411 22.6395 56.5406 22.6898 56.5285C22.74 56.5164 22.7868 56.4929 22.8267 56.46C23.6168 55.8403 24.4799 55.3197 25.3967 54.91C24.9962 55.2794 24.6854 55.7354 24.4878 56.2432C24.2903 56.7509 24.2112 57.2971 24.2567 57.84C24.3381 58.7932 24.7946 59.6752 25.5259 60.2921C26.2571 60.9089 27.2034 61.2103 28.1567 61.13C28.9404 61.0612 29.679 60.7341 30.2567 60.2C31.1067 62.42 34.3567 73.06 28.8567 94.2C21.4367 96.43 20.2567 98.77 19.2267 100.84C18.8926 101.592 18.4477 102.29 17.9067 102.91C17.3839 103.649 17.0747 104.518 17.0129 105.421C16.9512 106.324 17.1393 107.227 17.5567 108.03C18.9267 110.89 23.4367 114.03 37.0967 112.88C46.4967 112.08 52.2867 109.88 54.3067 106.34C54.7167 105.662 54.9627 104.898 55.0252 104.108C55.0877 103.318 54.965 102.524 54.6667 101.79C52.6667 97.01 47.5467 93.14 42.6667 92.67C41.8867 84.96 39.4967 66.89 33.8367 59.67C34.076 59.695 34.3173 59.695 34.5567 59.67C35.5108 59.5861 36.3927 59.1274 37.0093 58.3946C37.626 57.6617 37.9271 56.7144 37.8467 55.76C37.7845 55.0427 37.5081 54.3607 37.0534 53.8026C36.5986 53.2444 35.9866 52.8358 35.2967 52.63C37.223 52.4626 39.1637 52.6422 41.0267 53.16C41.0718 53.1821 41.1214 53.1935 41.1717 53.1935C41.2219 53.1935 41.2715 53.1821 41.3167 53.16C41.361 53.1322 41.3979 53.094 41.424 53.0487C41.4502 53.0033 41.4648 52.9523 41.4667 52.9C41.4918 51.6563 41.1435 50.4337 40.4667 49.39C41.4828 49.4859 42.4591 49.8332 43.3076 50.4005C44.156 50.9679 44.8499 51.7375 45.3267 52.64C45.3543 52.6962 45.397 52.7437 45.4499 52.7773C45.5028 52.8108 45.564 52.829 45.6267 52.83C45.6893 52.829 45.7505 52.8108 45.8034 52.7773C45.8564 52.7437 45.899 52.6962 45.9267 52.64C46.2896 51.8305 46.4255 50.9376 46.3198 50.0568C46.2141 49.176 45.8708 48.3406 45.3267 47.64C47.2067 48.19 49.5267 51.04 50.3267 52.24C50.361 52.2896 50.4076 52.3295 50.462 52.3557C50.5163 52.382 50.5764 52.3938 50.6367 52.39C50.7001 52.3806 50.7595 52.3528 50.8074 52.3102C50.8554 52.2676 50.8899 52.2119 50.9067 52.15C51.203 51.1583 51.3007 50.1178 51.1943 49.0882C51.0879 48.0587 50.7795 47.0602 50.2867 46.15C53.3567 46.45 57.1367 51.06 57.1767 51.15C57.2215 51.2045 57.2818 51.2442 57.3496 51.2638C57.4175 51.2835 57.4896 51.2821 57.5567 51.26C57.6251 51.2377 57.6841 51.1931 57.724 51.1332C57.7639 51.0733 57.7825 51.0017 57.7767 50.93C57.7851 48.7374 57.2709 46.5743 56.2767 44.62C59.9867 44.9 65.6167 50.4 65.6767 50.46C65.7258 50.5085 65.7889 50.5403 65.857 50.5511C65.9252 50.5618 65.995 50.551 66.0567 50.52C66.1186 50.4914 66.1701 50.4443 66.2041 50.3852C66.2381 50.3261 66.253 50.2579 66.2467 50.19C65.8167 44.62 60.4267 40.85 60.1767 40.68ZM42.2867 96.29C42.1558 97.3407 41.725 98.3314 41.0458 99.1437C40.3665 99.9559 39.4676 100.555 38.4567 100.87C35.6167 101.87 31.6067 101.21 29.7067 99.43C29.3197 99.1157 29.0304 98.6976 28.8727 98.2246C28.7151 97.7517 28.6956 97.2436 28.8167 96.76L29.0567 95.88C31.5163 96.7941 34.1359 97.1989 36.7567 97.07C38.798 96.9877 40.7288 96.1208 42.1467 94.65C42.2367 95.56 42.2767 96.14 42.2867 96.29ZM42.0567 93.69C38.6267 98.3 30.7967 95.79 29.2267 95.22C29.6867 93.52 30.09 91.8866 30.4367 90.32C32.2039 91.411 34.279 91.8956 36.3467 91.7C38.2208 91.5011 40.0292 90.8972 41.6467 89.93C41.8167 91.39 41.9567 92.67 42.0567 93.69ZM41.5567 89.2C35.5567 92.8 31.4367 90.2 30.5567 89.61C30.8967 88.04 31.1767 86.54 31.4267 85.11C33.039 85.6306 34.7375 85.831 36.4267 85.7C37.9713 85.5775 39.4701 85.1166 40.8167 84.35C41.1467 86.08 41.3667 87.77 41.5567 89.2ZM31.5567 84.43C31.8067 82.93 32.0067 81.49 32.1567 80.14C33.4798 80.624 34.8931 80.8117 36.2967 80.69C37.6081 80.5788 38.8803 80.1866 40.0267 79.54C40.2967 80.93 40.5267 82.3 40.7367 83.63C39.3495 84.3932 37.8183 84.8586 36.2411 84.9963C34.6638 85.1341 33.0751 84.9412 31.5767 84.43H31.5567ZM32.2267 79.43C32.3567 78.15 32.4567 76.93 32.5167 75.78C33.6464 76.1552 34.8403 76.298 36.0267 76.2C37.1248 76.1022 38.1873 75.7605 39.1367 75.2C39.4067 76.39 39.6667 77.6 39.8967 78.79C38.7499 79.4597 37.4683 79.8656 36.145 79.978C34.8217 80.0904 33.49 79.9067 32.2467 79.44L32.2267 79.43ZM32.5567 75.07C32.5567 74 32.6167 72.99 32.6067 72.07C33.3453 72.2044 34.0984 72.2414 34.8467 72.18C36.0012 72.1021 37.1104 71.7 38.0467 71.02C38.3767 72.18 38.6867 73.37 38.9667 74.57C38.0023 75.1134 36.9313 75.4405 35.8278 75.5286C34.7244 75.6167 33.615 75.4636 32.5767 75.08L32.5567 75.07ZM32.6067 71.34C32.6067 70.15 32.5267 69.06 32.4367 68.06C32.9743 68.1817 33.5276 68.2188 34.0767 68.17C35.0676 68.0806 36.0185 67.7361 36.8367 67.17C37.1867 68.17 37.5267 69.17 37.8367 70.26C37.0926 70.7956 36.2446 71.1694 35.3472 71.3571C34.4498 71.5449 33.5231 71.5424 32.6267 71.35L32.6067 71.34ZM32.3767 67.34C32.29 66.5 32.19 65.73 32.0767 65.03C32.3926 65.0609 32.7108 65.0609 33.0267 65.03C33.9499 64.9656 34.8304 64.6162 35.5467 64.03C35.9167 64.82 36.2567 65.66 36.5967 66.53C36.006 66.9788 35.3201 67.2861 34.592 67.4283C33.8639 67.5704 33.1128 67.5436 32.3967 67.35L32.3767 67.34ZM31.9667 64.34C31.8167 63.54 31.6667 62.85 31.5167 62.26C31.7229 62.28 31.9305 62.28 32.1367 62.26C32.8914 62.2083 33.6019 61.885 34.1367 61.35C34.5541 61.9946 34.9347 62.6624 35.2767 63.35C34.8372 63.7508 34.3137 64.0486 33.7446 64.2216C33.1755 64.3946 32.5749 64.4384 31.9867 64.35L31.9667 64.34ZM31.3167 61.54C31.1267 60.88 30.9567 60.39 30.8267 60.05H31.2567C31.7871 60.0013 32.2998 59.8338 32.7567 59.56C33.1133 59.9435 33.4472 60.3475 33.7567 60.77C33.458 61.102 33.0768 61.3491 32.6518 61.4861C32.2267 61.6231 31.773 61.6451 31.3367 61.55L31.3167 61.54ZM32.6267 58.85C32.2984 59.075 31.9286 59.2324 31.5389 59.3131C31.1492 59.3938 30.7473 59.3961 30.3567 59.32C29.7377 59.1929 29.1764 58.8691 28.7565 58.397C28.3366 57.9248 28.0806 57.3295 28.0267 56.7C27.9923 56.3221 28.0329 55.9412 28.1462 55.5791C28.2594 55.217 28.4431 54.8809 28.6867 54.59C28.9308 54.287 29.234 54.0367 29.5778 53.8545C29.9216 53.6723 30.2989 53.5619 30.6867 53.53H31.1167C31.4876 53.5487 31.8513 53.6404 32.1867 53.8C32.6508 54.0188 33.0494 54.3556 33.3424 54.7768C33.6355 55.198 33.8128 55.6887 33.8567 56.2C33.9075 56.7107 33.8223 57.2257 33.6098 57.6929C33.3973 58.1601 33.065 58.5627 32.6467 58.86L32.6267 58.85ZM35.6267 27.02C36.9095 26.523 38.2562 26.2099 39.6267 26.09C41.0588 25.9411 42.5062 26.1084 43.8667 26.58C41.7767 27.16 36.8667 28.74 35.6267 31.16C35.5947 31.211 35.5778 31.2699 35.5778 31.33C35.5778 31.3901 35.5947 31.4491 35.6267 31.5C35.6579 31.5503 35.7025 31.5909 35.7554 31.6174C35.8084 31.6439 35.8677 31.6552 35.9267 31.65C37.5259 31.6882 39.0915 32.1174 40.4867 32.9C38.7067 33.23 35.0567 34.13 33.9967 36.19C33.9677 36.2402 33.9525 36.2971 33.9525 36.355C33.9525 36.4129 33.9677 36.4698 33.9967 36.52C34.0275 36.5714 34.0716 36.6134 34.1245 36.6416C34.1773 36.6698 34.2369 36.6831 34.2967 36.68C35.8353 36.6871 37.3182 37.2561 38.4667 38.28C36.9467 38.41 33.5167 38.9 32.6367 40.57C32.603 40.624 32.5851 40.6864 32.5851 40.75C32.5851 40.8136 32.603 40.876 32.6367 40.93C32.6724 40.9847 32.7245 41.0268 32.7856 41.0501C32.8467 41.0735 32.9135 41.0769 32.9767 41.06C33.6006 40.9346 34.2455 40.96 34.8577 41.1339C35.4699 41.3078 36.0318 41.6253 36.4967 42.06C35.5343 42.077 34.5925 42.3417 33.7622 42.8286C32.932 43.3156 32.2412 44.0083 31.7567 44.84C31.7249 44.8929 31.7082 44.9533 31.7082 45.015C31.7082 45.0766 31.7249 45.1371 31.7567 45.19C31.7911 45.2419 31.8392 45.2834 31.8956 45.3098C31.9521 45.3363 32.0147 45.3467 32.0767 45.34C33.0217 45.2747 33.9671 45.461 34.8167 45.88C33.1181 47.5227 31.8271 49.5397 31.0467 51.77C30.3367 46.97 28.1167 30.82 35.7067 27.03L35.6267 27.02ZM22.8567 46.52C23.6654 45.56 24.7247 44.8434 25.9167 44.45C25.9767 44.4328 26.0308 44.3995 26.0732 44.3537C26.1155 44.3078 26.1444 44.2512 26.1567 44.19C26.1664 44.1284 26.1594 44.0653 26.1366 44.0073C26.1137 43.9493 26.0758 43.8984 26.0267 43.86C25.0369 43.118 23.8714 42.6458 22.6443 42.4898C21.4172 42.3338 20.1706 42.4993 19.0267 42.97C19.8367 40.47 22.6867 39.97 22.8167 39.91C22.8806 39.9018 22.9406 39.8745 22.9888 39.8317C23.037 39.7889 23.0711 39.7325 23.0867 39.67C23.1014 39.6071 23.099 39.5415 23.0796 39.4799C23.0602 39.4183 23.0247 39.3631 22.9767 39.32C21.1167 37.76 16.6867 38.97 14.9767 39.52C15.8138 37.665 17.3265 36.1989 19.2067 35.42C19.2635 35.4007 19.3141 35.3664 19.3528 35.3206C19.3916 35.2747 19.4171 35.2192 19.4267 35.16C19.4369 35.1017 19.4321 35.0418 19.4129 34.9858C19.3937 34.9298 19.3606 34.8797 19.3167 34.84C17.0367 32.89 12.0767 33.72 9.97666 34.19C11.269 32.5025 12.9688 31.1708 14.9167 30.32C14.973 30.2998 15.0229 30.2652 15.0616 30.2195C15.1002 30.1739 15.1261 30.1189 15.1367 30.06C15.1489 30.0017 15.1452 29.9412 15.1258 29.8848C15.1064 29.8285 15.0722 29.7784 15.0267 29.74C12.3167 27.46 5.52668 28.07 3.02668 28.38C6.80668 24.72 13.0267 24.74 13.0867 24.74C24.0067 25.58 29.1767 46.33 30.3567 51.86C28.3424 49.501 25.7812 47.6711 22.8967 46.53L22.8567 46.52ZM22.7067 55.77C22.4412 54.7876 22.4412 53.7524 22.7067 52.77C22.7253 52.7106 22.7267 52.6472 22.7107 52.587C22.6948 52.5268 22.6622 52.4724 22.6167 52.43C22.5732 52.3862 22.5182 52.3555 22.4581 52.3413C22.398 52.3272 22.3352 52.3302 22.2767 52.35C21.3074 52.6954 20.4433 53.2843 19.7673 54.0602C19.0913 54.836 18.6262 55.7726 18.4167 56.78C18.0465 56.1973 17.823 55.5336 17.7656 54.8456C17.7081 54.1577 17.8183 53.466 18.0867 52.83C18.1207 52.778 18.1388 52.7172 18.1388 52.655C18.1388 52.5928 18.1207 52.532 18.0867 52.48C18.0438 52.4319 17.9882 52.3969 17.9262 52.3792C17.8642 52.3615 17.7985 52.3618 17.7367 52.38C15.7967 52.95 14.5967 56.5 14.1667 58.03C13.3004 56.612 12.9938 54.9219 13.3067 53.29C13.3191 53.2325 13.3164 53.1729 13.2989 53.1168C13.2813 53.0607 13.2496 53.0102 13.2067 52.97C13.1654 52.926 13.1122 52.895 13.0536 52.8808C12.995 52.8666 12.9335 52.8698 12.8767 52.89C10.4967 53.58 8.80669 57.29 8.12669 59.06C7.57643 57.4188 7.43568 55.668 7.71668 53.96C7.73327 53.902 7.73365 53.8406 7.71778 53.7824C7.70192 53.7242 7.67041 53.6715 7.62669 53.63C7.58409 53.588 7.53088 53.5584 7.47276 53.5443C7.41463 53.5302 7.35376 53.5322 7.29667 53.55C4.48667 54.39 1.82666 59.25 0.816659 61.28C0.086659 56.99 2.90664 52.73 2.92664 52.7C4.62664 50.5 7.35666 49.51 10.4767 49.24C17.5267 48.64 26.4767 51.76 29.7867 53.01C27.2401 53.3515 24.8125 54.2979 22.7067 55.77ZM28.5067 53.92L28.3367 54.08H28.0367L28.5067 53.92ZM24.8767 57.92C24.8438 57.5357 24.8871 57.1488 25.0041 56.7813C25.1211 56.4138 25.3095 56.073 25.5585 55.7785C25.8075 55.484 26.1122 55.2416 26.4551 55.0651C26.798 54.8886 27.1723 54.7815 27.5567 54.75H27.8567V54.8C27.8567 54.85 27.8067 54.91 27.7767 54.96C27.7083 55.0962 27.6482 55.2365 27.5967 55.38L27.5367 55.59C27.4962 55.7309 27.4661 55.8746 27.4467 56.02V56.21C27.4267 56.4262 27.4267 56.6438 27.4467 56.86C27.462 57.0421 27.4921 57.2227 27.5367 57.4C27.5367 57.46 27.5367 57.52 27.5867 57.58L27.7067 57.92L27.7967 58.11C27.844 58.2098 27.8974 58.3067 27.9567 58.4L28.0767 58.59C28.1344 58.6775 28.1978 58.761 28.2667 58.84L28.4167 59.01C28.4883 59.0916 28.5651 59.1684 28.6467 59.24L28.8167 59.38C28.9024 59.4522 28.9926 59.519 29.0867 59.58L29.2567 59.69C29.4008 59.7719 29.5513 59.8421 29.7067 59.9C29.2445 60.2925 28.671 60.5303 28.0667 60.58C27.6748 60.6169 27.2795 60.5748 26.9042 60.4561C26.529 60.3375 26.1814 60.1446 25.882 59.8891C25.5826 59.6336 25.3376 59.3205 25.1615 58.9685C24.9854 58.6165 24.8817 58.2328 24.8567 57.84L24.8767 57.92ZM54.0267 102.21C54.282 102.858 54.3833 103.557 54.3225 104.251C54.2618 104.945 54.0407 105.616 53.6767 106.21C52.3667 108.49 48.4067 111.42 37.0067 112.4C23.0067 113.59 19.1767 110.11 18.1267 107.92C17.7748 107.238 17.6115 106.474 17.6537 105.707C17.6959 104.941 17.942 104.2 18.3667 103.56C18.9543 102.892 19.4395 102.14 19.8067 101.33C20.8067 99.33 21.8567 97.27 28.6167 95.16C28.4867 95.67 28.3467 96.16 28.2067 96.7C28.0417 97.3014 28.056 97.9379 28.2478 98.5313C28.4397 99.1247 28.8008 99.649 29.2867 100.04C30.2863 100.837 31.4331 101.429 32.6617 101.782C33.8902 102.136 35.1764 102.244 36.4467 102.1C37.2234 102.034 37.9892 101.873 38.7267 101.62C39.8595 101.264 40.8656 100.588 41.6246 99.6749C42.3837 98.7616 42.8635 97.6489 43.0067 96.47V96.4C43.0067 96.19 42.9167 95.15 42.7567 93.54C45.194 93.9352 47.4961 94.9261 49.4586 96.4246C51.4211 97.923 52.9833 99.8828 54.0067 102.13L54.0267 102.21ZM37.1667 56.01C37.1996 56.3935 37.1566 56.7797 37.0403 57.1465C36.9239 57.5134 36.7364 57.8538 36.4884 58.1481C36.2405 58.4425 35.9369 58.6852 35.5952 58.8622C35.2534 59.0393 34.8802 59.1473 34.4967 59.18C34.1612 59.2125 33.8227 59.1854 33.4967 59.1C33.5567 59.05 33.5967 58.99 33.6567 58.93L33.7367 58.84C33.8267 58.73 33.9167 58.61 33.9967 58.49C34.0667 58.38 34.1267 58.26 34.1867 58.15L34.2467 58.02C34.2467 57.93 34.3167 57.84 34.3467 57.74C34.3767 57.64 34.3467 57.64 34.3967 57.59C34.4259 57.4982 34.4493 57.4047 34.4667 57.31V57.16V56.86C34.4713 56.8134 34.4713 56.7666 34.4667 56.72C34.4767 56.5702 34.4767 56.4198 34.4667 56.27C34.4667 56.12 34.4667 55.98 34.3967 55.83C34.3267 55.68 34.3967 55.74 34.3967 55.69C34.3967 55.64 34.3467 55.5 34.3167 55.41L34.2567 55.25C34.2242 55.1649 34.1875 55.0814 34.1467 55C34.124 54.948 34.0972 54.8978 34.0667 54.85C34.0667 54.77 33.9767 54.69 33.9267 54.61L33.8367 54.48C33.7753 54.3867 33.705 54.2996 33.6267 54.22L33.5667 54.14C33.4716 54.0383 33.3715 53.9415 33.2667 53.85L33.1467 53.76L32.9767 53.62C33.2749 53.4895 33.5924 53.4084 33.9167 53.38C34.6821 53.2952 35.4502 53.5153 36.0547 53.9925C36.6592 54.4697 37.0515 55.1657 37.1467 55.93L37.1667 56.01ZM55.7067 44.01C55.6477 44.0154 55.5911 44.0357 55.5422 44.0689C55.4932 44.1021 55.4535 44.1472 55.4267 44.2C55.3978 44.252 55.3826 44.3105 55.3826 44.37C55.3826 44.4295 55.3978 44.488 55.4267 44.54C56.427 46.2075 56.9974 48.0975 57.0867 50.04C55.7167 48.54 52.4567 45.34 49.7167 45.58C49.6587 45.5841 49.6028 45.604 49.5553 45.6375C49.5077 45.671 49.4701 45.7168 49.4467 45.77C49.4178 45.822 49.4026 45.8805 49.4026 45.94C49.4026 45.9995 49.4178 46.058 49.4467 46.11C50.4284 47.6905 50.785 49.5805 50.4467 51.41C49.4467 50.05 46.7267 46.82 44.4967 47.02C44.4317 47.0229 44.3691 47.0454 44.3173 47.0847C44.2655 47.1241 44.2269 47.1782 44.2067 47.24C44.182 47.2994 44.1765 47.365 44.1908 47.4277C44.2052 47.4904 44.2387 47.5472 44.2867 47.59C44.829 48.1446 45.2259 48.8245 45.4423 49.5695C45.6586 50.3144 45.6876 51.1012 45.5267 51.86C44.9056 50.9115 44.052 50.1378 43.0472 49.6127C42.0425 49.0875 40.92 48.8284 39.7867 48.86C39.7235 48.864 39.6625 48.8846 39.6098 48.9197C39.5572 48.9549 39.5147 49.0032 39.4867 49.06C39.4621 49.1173 39.4538 49.1803 39.4626 49.242C39.4714 49.3037 39.497 49.3619 39.5367 49.41C40.2216 50.3319 40.6371 51.4258 40.7367 52.57C38.8746 52.1058 36.9479 51.9571 35.0367 52.13C34.1106 52.2154 33.1917 52.3658 32.2867 52.58C36.2867 48.93 51.1367 36.15 59.7767 41.32C59.8267 41.32 64.5167 44.63 65.4467 49.39C63.7067 47.69 58.9367 43.68 55.7067 43.96V44.01Z" fill="#E5E5E5"/>
</svg>
